<svg width="48" height="48" viewBox="0 0 48 48" fill="none" xmlns="http://www.w3.org/2000/svg">
<path d="M44.8501 20.25L43.0501 18.825C42.6001 18.45 42.4501 17.925 42.5251 17.4L43.1251 15.225C43.5001 13.875 43.2001 12.45 42.3751 11.25C41.4751 10.05 40.1251 9.29999 38.6251 9.22499L36.3001 9.07499C35.7001 9.07499 35.1001 8.69999 34.9501 8.17499L34.1251 6.14999C33.6001 4.87499 32.4751 3.82499 31.1251 3.37499C29.7001 2.92499 28.2001 3.07499 26.9251 3.82499L24.9751 5.02499C24.4501 5.32499 23.7751 5.32499 23.1751 5.02499L21.2251 3.82499C19.9501 3.07499 18.4501 2.84999 17.0251 3.37499C15.6751 3.82499 14.5501 4.79999 14.0251 6.14999L13.0501 8.24999C12.8251 8.77499 12.3001 9.14999 11.7001 9.14999L9.3751 9.29999C7.8751 9.37499 6.4501 10.125 5.6251 11.325C4.8001 12.45 4.5001 13.95 4.8751 15.3L5.4751 17.475C5.6251 18 5.4001 18.525 4.9501 18.9L3.1501 20.25C1.9501 21.15 1.3501 22.5 1.3501 24C1.3501 25.425 2.0251 26.775 3.1501 27.75L4.9501 29.175C5.4001 29.55 5.6251 30.075 5.4751 30.6L4.8751 32.775C4.5001 34.125 4.8001 35.55 5.6251 36.75C6.5251 37.95 7.8751 38.7 9.3751 38.775L11.7001 38.925C12.3001 38.925 12.9001 39.3 13.0501 39.825L13.8751 41.85C14.4001 43.125 15.5251 44.175 16.8751 44.625C18.3001 45.075 19.8001 44.925 21.0751 44.175L23.0251 42.975C23.5501 42.675 24.2251 42.675 24.8251 42.975L26.7751 44.175C27.6001 44.625 28.5001 44.925 29.4001 44.925C29.9251 44.925 30.4501 44.85 30.9751 44.7C32.3251 44.25 33.4501 43.275 33.9751 41.925L34.8001 39.9C35.0251 39.375 35.5501 39 36.1501 39L38.4751 38.85C39.9751 38.775 41.4001 38.025 42.2251 36.825C43.0501 35.7 43.3501 34.2 42.9751 32.85L42.3751 30.675C42.2251 30.15 42.4501 29.625 42.9001 29.25L44.7001 27.825C45.9001 26.925 46.5001 25.575 46.5001 24.075C46.7251 22.575 46.0501 21.225 44.8501 20.25ZM42.7501 25.05L40.9501 26.475C39.4501 27.675 38.7751 29.625 39.3001 31.425L39.9001 33.6C40.0501 34.125 39.8251 34.5 39.6751 34.725C39.3751 35.1 38.9251 35.325 38.4751 35.4L36.1501 35.55C34.2751 35.625 32.5501 36.825 31.8751 38.55L30.9751 40.5C30.7501 41.025 30.3001 41.25 30.0001 41.325C29.5501 41.475 29.0251 41.4 28.5751 41.175L26.6251 39.975C25.8001 39.525 24.9001 39.225 24.0001 39.225C23.1001 39.225 22.2001 39.45 21.3751 39.975L19.4251 41.175C18.9751 41.4 18.4501 41.475 18.0001 41.325C17.7751 41.25 17.2501 41.025 17.0251 40.5L16.2001 38.475C15.5251 36.75 13.8001 35.55 11.9251 35.475L9.6001 35.325C9.0751 35.325 8.6251 35.025 8.4001 34.65C8.2501 34.425 8.0251 34.05 8.1751 33.525L8.7751 31.35C9.3001 29.55 8.6251 27.6 7.1251 26.4L5.2501 25.05C4.8751 24.75 4.7251 24.375 4.7251 24C4.7251 23.55 4.9501 23.175 5.2501 22.95L7.0501 21.525C8.5501 20.325 9.2251 18.375 8.7001 16.575L8.1001 14.4C7.9501 13.875 8.1751 13.5 8.3251 13.275C8.6251 12.9 9.0751 12.675 9.5251 12.6L11.8501 12.45C13.7251 12.375 15.4501 11.175 16.1251 9.44999L16.9501 7.42499C17.2501 6.97499 17.7001 6.74999 18.0001 6.67499C18.4501 6.52499 18.9751 6.59999 19.4251 6.82499L21.3751 8.02499C22.9501 8.99999 25.0501 8.99999 26.6251 8.02499L28.5751 6.82499C29.0251 6.59999 29.5501 6.52499 30.0001 6.67499C30.2251 6.74999 30.7501 6.97499 30.9751 7.49999L31.8001 9.52499C32.4751 11.25 34.2001 12.45 36.0751 12.525L38.4001 12.675C38.9251 12.675 39.3751 12.975 39.6001 13.35C39.7501 13.575 39.9751 13.95 39.8251 14.475L39.2251 16.65C38.7001 18.45 39.3751 20.4 40.8751 21.6L42.6751 23.025C43.0501 23.325 43.2001 23.7 43.2001 24.075C43.3501 24.45 43.1251 24.825 42.7501 25.05Z" fill="#111928"/>
<path d="M30.9 17.1C30.225 16.425 29.175 16.425 28.5 17.1L17.1 28.5C16.425 29.175 16.425 30.225 17.1 30.9C17.4 31.2 17.85 31.425 18.3 31.425C18.75 31.425 19.2 31.275 19.5 30.9L30.9 19.5C31.575 18.825 31.575 17.7 30.9 17.1Z" fill="#111928"/>
<path d="M21.9001 21.8249C23.7001 20.0249 23.7001 17.1749 21.9001 15.3749C21.0751 14.5499 19.8751 14.0249 18.6751 14.0249C17.4751 14.0249 16.3501 14.4749 15.4501 15.3749C13.6501 17.1749 13.6501 20.0249 15.4501 21.8249C16.2751 22.6499 17.4751 23.1749 18.6751 23.1749C19.8751 23.1749 21.0001 22.7249 21.9001 21.8249ZM17.8501 17.8499C18.0751 17.6249 18.3751 17.4749 18.6751 17.4749C18.9751 17.4749 19.2751 17.6249 19.5001 17.8499C19.9501 18.2999 19.9501 19.0499 19.5001 19.4999C19.0501 19.9499 18.3001 19.9499 17.8501 19.4999C17.4001 19.0499 17.4001 18.2999 17.8501 17.8499Z" fill="#111928"/>
<path d="M25.8751 25.8749C25.0501 26.6999 24.5251 27.8999 24.5251 29.0999C24.5251 30.2999 24.9751 31.4249 25.8751 32.3249C26.7751 33.2249 27.9001 33.6749 29.1001 33.6749C30.3001 33.6749 31.4251 33.2249 32.3251 32.3249C33.1501 31.4999 33.6751 30.2999 33.6751 29.0999C33.6751 27.8999 33.2251 26.7749 32.3251 25.8749C30.5251 24.0749 27.6751 24.0749 25.8751 25.8749ZM29.9251 29.9249C29.4751 30.3749 28.7251 30.3749 28.2751 29.9249C28.0501 29.6999 27.9001 29.3999 27.9001 29.0999C27.9001 28.7999 28.0501 28.4999 28.2751 28.2749C28.5001 28.0499 28.8001 27.8999 29.1001 27.8999C29.4001 27.8999 29.7001 28.0499 29.9251 28.2749C30.1501 28.4999 30.3001 28.7999 30.3001 29.0999C30.3001 29.3999 30.1501 29.6999 29.9251 29.9249Z" fill="#111928"/>
</svg>
