<svg width="48" height="48" viewBox="0 0 48 48" fill="none" xmlns="http://www.w3.org/2000/svg">
<path d="M41.6249 11.025H35.3999V8.77499C35.3999 5.99999 33.1499 3.67499 30.2999 3.67499H6.3749C3.5999 3.67499 1.2749 5.92499 1.2749 8.77499V24.075C1.2749 26.85 3.5249 29.1 6.2999 29.175C5.5499 31.8 4.8749 33.525 4.3499 34.275C3.8999 34.875 3.9749 35.7 4.4999 36.3C4.7999 36.675 5.3249 36.9 5.7749 36.9C5.9999 36.9 6.2249 36.825 6.4499 36.75C8.8499 35.7 13.7999 32.1 16.0499 29.175H17.2499C17.2499 29.775 17.2499 30.45 17.2499 31.425C17.2499 34.2 19.4999 36.525 22.3499 36.525H31.9499C34.2749 39.45 39.1499 43.05 41.5499 44.1C41.7749 44.25 41.9999 44.25 42.2249 44.25C42.7499 44.25 43.2749 44.025 43.5749 43.575C44.0249 42.975 44.0249 42.075 43.4999 41.475C42.6749 40.5 42.2249 38.175 41.8499 36.375C44.5499 36.225 46.6499 33.975 46.6499 31.275V16.125C46.7249 13.35 44.3999 11.025 41.6249 11.025ZM15.2249 25.8C14.6249 25.8 14.0999 26.1 13.7999 26.55C13.0499 27.75 11.1749 29.475 9.2999 30.975C9.5999 29.925 9.8999 28.875 10.1249 27.9C10.2749 27.375 10.1249 26.85 9.8249 26.4C9.5249 25.95 8.9999 25.725 8.4749 25.725H6.3749C5.3999 25.725 4.6499 24.975 4.6499 24V8.77499C4.6499 7.79999 5.3999 7.04999 6.3749 7.04999H30.2249C31.1999 7.04999 31.9499 7.79999 31.9499 8.77499V24.075C31.9499 25.05 31.1999 25.8 30.2249 25.8H15.2249ZM43.3499 31.35C43.3499 32.325 42.5999 33.075 41.6249 33.075H39.8249C39.2999 33.075 38.8499 33.3 38.4749 33.75C38.0999 34.2 38.0249 34.65 38.1749 35.175C38.2499 35.55 38.3999 36.075 38.4749 36.675C38.5499 37.275 38.6999 37.875 38.8499 38.475C36.8999 36.975 35.0249 35.25 34.1999 33.975C33.8999 33.525 33.3749 33.225 32.7749 33.225H22.2749C21.2999 33.225 20.5499 32.475 20.5499 31.5C20.5499 30.675 20.5499 29.85 20.5499 29.25H30.2249C32.9999 29.25 35.3249 27 35.3249 24.15V14.4H41.5499C42.5249 14.4 43.2749 15.15 43.2749 16.125V31.35H43.3499Z" fill="#111928"/>
<path d="M9.22481 14.925H9.1498C8.2498 14.925 7.4248 15.675 7.4248 16.65C7.4248 17.625 8.1748 18.375 9.1498 18.375H9.22481C10.1248 18.375 10.9498 17.625 10.9498 16.65C10.9498 15.675 10.1998 14.925 9.22481 14.925Z" fill="#111928"/>
<path d="M18.2248 14.925H18.1498C17.2498 14.925 16.4248 15.675 16.4248 16.65C16.4248 17.625 17.1748 18.375 18.1498 18.375H18.2248C19.1248 18.375 19.9498 17.625 19.9498 16.65C19.9498 15.675 19.1998 14.925 18.2248 14.925Z" fill="#111928"/>
<path d="M27.2248 14.925H27.1498C26.2498 14.925 25.4248 15.675 25.4248 16.65C25.4248 17.625 26.1748 18.375 27.1498 18.375H27.2248C28.1248 18.375 28.9498 17.625 28.9498 16.65C28.9498 15.675 28.1998 14.925 27.2248 14.925Z" fill="#111928"/>
</svg>
