<svg width="54" height="53" viewBox="0 0 54 53" fill="none" xmlns="http://www.w3.org/2000/svg">
<g filter="url(#filter0_d_310_5674)">
<path d="M44.6249 11.025H38.3999V8.77499C38.3999 5.99999 36.1499 3.67499 33.2999 3.67499H9.3749C6.5999 3.67499 4.2749 5.92499 4.2749 8.77499V24.075C4.2749 26.85 6.5249 29.1 9.2999 29.175C8.5499 31.8 7.8749 33.525 7.3499 34.275C6.8999 34.875 6.9749 35.7 7.4999 36.3C7.7999 36.675 8.3249 36.9 8.7749 36.9C8.9999 36.9 9.2249 36.825 9.4499 36.75C11.8499 35.7 16.7999 32.1 19.0499 29.175H20.2499C20.2499 29.775 20.2499 30.45 20.2499 31.425C20.2499 34.2 22.4999 36.525 25.3499 36.525H34.9499C37.2749 39.45 42.1499 43.05 44.5499 44.1C44.7749 44.25 44.9999 44.25 45.2249 44.25C45.7499 44.25 46.2749 44.025 46.5749 43.575C47.0249 42.975 47.0249 42.075 46.4999 41.475C45.6749 40.5 45.2249 38.175 44.8499 36.375C47.5499 36.225 49.6499 33.975 49.6499 31.275V16.125C49.7249 13.35 47.3999 11.025 44.6249 11.025ZM18.2249 25.8C17.6249 25.8 17.0999 26.1 16.7999 26.55C16.0499 27.75 14.1749 29.475 12.2999 30.975C12.5999 29.925 12.8999 28.875 13.1249 27.9C13.2749 27.375 13.1249 26.85 12.8249 26.4C12.5249 25.95 11.9999 25.725 11.4749 25.725H9.3749C8.3999 25.725 7.6499 24.975 7.6499 24V8.77499C7.6499 7.79999 8.3999 7.04999 9.3749 7.04999H33.2249C34.1999 7.04999 34.9499 7.79999 34.9499 8.77499V24.075C34.9499 25.05 34.1999 25.8 33.2249 25.8H18.2249V25.8ZM46.3499 31.35C46.3499 32.325 45.5999 33.075 44.6249 33.075H42.8249C42.2999 33.075 41.8499 33.3 41.4749 33.75C41.0999 34.2 41.0249 34.65 41.1749 35.175C41.2499 35.55 41.3999 36.075 41.4749 36.675C41.5499 37.275 41.6999 37.875 41.8499 38.475C39.8999 36.975 38.0249 35.25 37.1999 33.975C36.8999 33.525 36.3749 33.225 35.7749 33.225H25.2749C24.2999 33.225 23.5499 32.475 23.5499 31.5C23.5499 30.675 23.5499 29.85 23.5499 29.25H33.2249C35.9999 29.25 38.3249 27 38.3249 24.15V14.4H44.5499C45.5249 14.4 46.2749 15.15 46.2749 16.125V31.35H46.3499Z" fill="#111928"/>
<path d="M12.2248 14.925H12.1498C11.2498 14.925 10.4248 15.675 10.4248 16.65C10.4248 17.625 11.1748 18.375 12.1498 18.375H12.2248C13.1248 18.375 13.9498 17.625 13.9498 16.65C13.9498 15.675 13.1998 14.925 12.2248 14.925Z" fill="#111928"/>
<path d="M21.2248 14.925H21.1498C20.2498 14.925 19.4248 15.675 19.4248 16.65C19.4248 17.625 20.1748 18.375 21.1498 18.375H21.2248C22.1248 18.375 22.9498 17.625 22.9498 16.65C22.9498 15.675 22.1998 14.925 21.2248 14.925Z" fill="#111928"/>
<path d="M30.2248 14.925H30.1498C29.2498 14.925 28.4248 15.675 28.4248 16.65C28.4248 17.625 29.1748 18.375 30.1498 18.375H30.2248C31.1248 18.375 31.9498 17.625 31.9498 16.65C31.9498 15.675 31.1998 14.925 30.2248 14.925Z" fill="#111928"/>
</g>
<defs>
<filter id="filter0_d_310_5674" x="-1" y="0" width="56" height="56" filterUnits="userSpaceOnUse" color-interpolation-filters="sRGB">
<feFlood flood-opacity="0" result="BackgroundImageFix"/>
<feColorMatrix in="SourceAlpha" type="matrix" values="0 0 0 0 0 0 0 0 0 0 0 0 0 0 0 0 0 0 127 0" result="hardAlpha"/>
<feOffset dy="4"/>
<feGaussianBlur stdDeviation="2"/>
<feComposite in2="hardAlpha" operator="out"/>
<feColorMatrix type="matrix" values="0 0 0 0 0 0 0 0 0 0 0 0 0 0 0 0 0 0 0.25 0"/>
<feBlend mode="normal" in2="BackgroundImageFix" result="effect1_dropShadow_310_5674"/>
<feBlend mode="normal" in="SourceGraphic" in2="effect1_dropShadow_310_5674" result="shape"/>
</filter>
</defs>
</svg>
