<svg width="48" height="48" viewBox="0 0 48 48" fill="none" xmlns="http://www.w3.org/2000/svg">
<path d="M44.775 11.175C44.775 11.1 44.7 11.1 44.7 11.025C44.175 10.275 43.425 9.59995 42.525 9.22495L26.325 1.79995C24.825 1.12495 23.175 1.12495 21.675 1.79995L5.55 9.22495C4.65 9.59995 3.975 10.275 3.375 10.95C3.3 11.025 3.225 11.1 3.15 11.175C3.15 11.25 3.075 11.25 3.075 11.325C2.55 12.225 2.25 13.2 2.25 14.25V33C2.25 35.1 3.45 37.05 5.325 37.95L21.45 46.05C22.2 46.425 23.1 46.65 23.925 46.65C24.75 46.65 25.65 46.425 26.4 46.05L42.525 37.95C44.4 36.975 45.6 35.1 45.6 33V14.25C45.75 13.125 45.375 12.075 44.775 11.175ZM23.1 4.87495C23.4 4.72495 23.7 4.64995 24 4.64995C24.3 4.64995 24.6 4.72495 24.9 4.87495L40.05 11.85L34.05 14.775L18.525 6.97495L23.1 4.87495ZM24 19.725L7.95 11.85L14.625 8.77495L30.3 16.65L24 19.725ZM6.825 34.95C6.075 34.575 5.625 33.825 5.625 33V14.475L22.275 22.65V42.75L6.825 34.95ZM41.175 34.95L25.65 42.75V22.65L32.25 19.425V25.5C32.25 26.4 33 27.15 33.9 27.15C34.8 27.15 35.55 26.4 35.55 25.5V17.775L42.225 14.475V33C42.375 33.825 41.85 34.575 41.175 34.95Z" fill="#111928"/>
</svg>
