<svg width="48" height="48" viewBox="0 0 48 48" fill="none" xmlns="http://www.w3.org/2000/svg">
<path d="M42.0001 1.3501H6.0001C3.4501 1.3501 1.3501 3.4501 1.3501 6.0001V42.0001C1.3501 44.5501 3.4501 46.7251 6.0751 46.7251H42.0751C44.6251 46.7251 46.8001 44.6251 46.8001 42.0001V6.0001C46.7251 3.4501 44.5501 1.3501 42.0001 1.3501ZM43.3501 27.1501H40.6501C40.5001 27.1501 40.2001 26.8501 40.2001 26.3251V16.9501C40.2001 16.4251 40.5001 16.1251 40.7251 16.1251H43.3501V27.1501ZM6.0001 4.7251H42.0001C42.7501 4.7251 43.3501 5.3251 43.3501 6.0751V12.8251H40.7251C39.3751 12.8251 38.2501 13.5751 37.5751 14.6251H29.7001L29.0251 14.0251C25.5001 10.9501 20.2501 10.6501 16.5751 13.3501C15.1501 14.4001 14.1001 15.6751 13.5001 16.4251H12.9001C12.7501 14.3251 11.1751 12.7501 9.2251 12.7501H4.7251V6.0001C4.7251 5.2501 5.2501 4.7251 6.0001 4.7251ZM35.6251 25.3501C34.8001 25.3501 34.0501 25.6501 33.4501 26.2501C33.3751 26.3251 33.3001 26.4001 33.2251 26.4751L26.8501 36.0001L25.2001 35.5501L24.0001 33.6001C23.7751 33.2251 23.4001 33.0001 23.0251 32.8501L21.3001 32.4001L20.5501 30.7501C20.3251 30.3001 19.9501 30.0001 19.5001 29.8501L17.6251 29.3251L17.4001 29.0251L23.1001 23.1001C23.4751 22.7251 24.0751 22.6501 24.5251 23.0251L24.7501 23.2501C26.6251 24.6751 29.1751 24.4501 30.8251 22.7251L31.8751 21.6001C32.5501 20.8501 32.9251 19.8751 32.8501 18.9001C32.8501 18.6001 32.7751 18.3001 32.7001 17.9251H36.7501V25.4251H35.6251V25.3501ZM15.3751 26.1751C14.6251 25.7251 13.8751 25.5001 13.0501 25.4251V19.7251H13.8751C14.8501 19.7251 15.6751 19.2751 16.2001 18.5251C16.5751 18.0001 17.4001 16.8751 18.6001 16.0501C21.0001 14.3251 24.4501 14.4751 26.7751 16.5751L28.8751 18.4501C29.1001 18.6751 29.2501 18.9001 29.3251 19.1251C29.3251 19.2001 29.3251 19.2751 29.2501 19.3501L28.2001 20.4751C27.8251 20.9251 27.1501 21.0001 26.6251 20.6251L26.4001 20.4001C24.6001 19.0501 22.2001 19.2001 20.5501 20.8501L15.3751 26.1751ZM4.7251 16.1251H9.2251C9.3751 16.1251 9.6751 16.4251 9.6751 16.9501V26.4001C9.6751 26.9251 9.3751 27.2251 9.1501 27.2251H4.7251V16.1251ZM42.0001 43.3501H6.0001C5.2501 43.3501 4.6501 42.7501 4.6501 42.0001V30.5251H9.0751C10.4251 30.5251 11.5501 29.7751 12.2251 28.7251H12.3751C12.6751 28.7251 12.9751 28.8001 13.2751 28.9501C13.2751 29.3251 13.4251 29.6251 13.5751 29.9251L15.0001 31.8751C15.2251 32.1751 15.5251 32.4001 15.9001 32.4751L17.6251 32.9251L18.3751 34.5751C18.6001 35.0251 18.9751 35.3251 19.4251 35.4751L21.3001 36.0001L22.5001 37.9501C22.7251 38.3251 23.1001 38.5501 23.4751 38.7001L26.9251 39.6751C27.0751 39.7501 27.2251 39.7501 27.3751 39.7501C27.9001 39.7501 28.4251 39.4501 28.8001 39.0001L35.6251 28.8751H37.2751C37.9501 30.0001 39.1501 30.6751 40.4251 30.6751H43.1251V42.0001C43.3501 42.7501 42.7501 43.3501 42.0001 43.3501Z" fill="#111928"/>
</svg>
