<svg width="48" height="48" viewBox="0 0 48 48" fill="none" xmlns="http://www.w3.org/2000/svg">
<path d="M39.8251 5.85002L25.3501 1.50002C24.4501 1.20002 23.4751 1.20002 22.5751 1.50002L8.1751 5.85002C6.1501 6.45002 4.7251 8.32502 4.7251 10.425V27.9C4.7251 33.45 9.9001 38.325 14.3251 41.475C17.1001 43.5 19.9501 45.075 21.8251 46.05C22.5001 46.5 23.2501 46.65 24.0001 46.65C24.7501 46.65 25.5001 46.5 26.1751 46.125C28.0501 45.15 30.8251 43.575 33.6751 41.55C38.0251 38.4 43.2751 33.45 43.2751 27.975V10.425C43.2751 8.32502 41.8501 6.45002 39.8251 5.85002ZM39.9001 27.975C39.9001 31.2 36.9751 35.025 31.7251 38.85C29.1001 40.725 26.4751 42.225 24.6751 43.2C24.3001 43.425 23.7751 43.425 23.4001 43.2C21.6001 42.3 18.9751 40.8 16.3501 38.85C11.1001 35.025 8.1751 31.2 8.1751 27.975V10.425C8.1751 9.82502 8.6251 9.22502 9.2251 9.07502L23.7001 4.72502C23.8501 4.65002 24.0001 4.65002 24.0751 4.65002C24.1501 4.65002 24.3751 4.65002 24.4501 4.72502L38.9251 9.07502C39.5251 9.22502 39.9751 9.82502 39.9751 10.425V27.975H39.9001Z" fill="#111928"/>
<path d="M29.4002 17.625L20.7752 24.6L18.9002 21.975C18.3752 21.225 17.3252 21.075 16.5752 21.6C15.8252 22.125 15.6752 23.175 16.2002 23.925L19.1252 27.975C19.4252 28.35 19.8002 28.575 20.2502 28.65C20.3252 28.65 20.4002 28.65 20.4752 28.65C20.8502 28.65 21.2252 28.5 21.5252 28.275L31.5002 20.25C32.2502 19.65 32.3252 18.6 31.7252 17.85C31.2002 17.175 30.1502 17.1 29.4002 17.625Z" fill="#111928"/>
</svg>
