<svg width="48" height="48" viewBox="0 0 48 48" fill="none" xmlns="http://www.w3.org/2000/svg">
<path d="M44.1917 17.6926C46.2545 17.6926 48 15.9471 48 13.8843V11.3455C48 9.67934 46.8893 8.1719 45.3025 7.69587L20.7074 0.158678C20.3107 0.0793389 19.9934 0 19.5967 0H9.83802C7.77521 0 6.02975 1.74545 6.02975 3.80826V13.8843C6.02975 15.9471 7.77521 17.6926 9.83802 17.6926H12.0595V32.2909H4.91901C2.22149 32.2909 0 34.5124 0 37.2099V43.0017C0 45.6992 2.22149 47.9207 4.91901 47.9207H22.7702C25.4678 47.9207 27.7686 45.6992 27.7686 43.0017V37.2099C27.7686 34.5124 25.5471 32.2909 22.7702 32.2909H15.6298V17.6926H38.3207V26.3405C38.3207 28.0066 39.5107 29.5141 41.1769 29.9107C43.319 30.4661 44.6678 32.6083 44.2711 34.8298C43.9537 36.4959 42.5256 37.924 40.8595 38.2413C39.5901 38.4793 38.3207 38.162 37.2893 37.2893C36.3372 36.4959 35.7818 35.3058 35.7818 34.0364C35.7818 33.5603 35.8612 33.0843 36.0198 32.6083C36.3372 31.6562 35.8612 30.6248 34.9091 30.3074C33.957 29.9901 32.9256 30.4661 32.6083 31.4182C32.2909 32.2909 32.1322 33.1636 32.1322 34.0364C32.1322 36.3372 33.1636 38.5587 34.9091 40.0661C36.3372 41.2562 38.0826 41.8909 39.9868 41.8909C40.4628 41.8909 40.9388 41.8116 41.4149 41.7322C44.5884 41.1769 47.2066 38.5587 47.762 35.3851C48.476 31.2595 46.0165 27.4512 42.0496 26.4198C41.8909 26.4198 41.8909 26.3405 41.8909 26.2612V17.6926H44.1917ZM24.1983 37.2099V43.0017C24.1983 43.795 23.5636 44.4298 22.7702 44.4298H4.91901C4.12562 44.4298 3.49091 43.795 3.49091 43.0017V37.2099C3.49091 36.4959 4.12562 35.8612 4.91901 35.8612H22.7702C23.5636 35.8612 24.1983 36.4959 24.1983 37.2099ZM44.4298 11.3455V13.8843C44.4298 14.043 44.3504 14.1223 44.1917 14.1223H21.7388V4.12562L44.2711 11.0281C44.3504 11.1074 44.4298 11.1868 44.4298 11.3455ZM9.6 13.8843V3.72893C9.6 3.57025 9.67934 3.49091 9.83802 3.49091H18.1686V14.043H9.83802C9.67934 14.1223 9.6 13.9636 9.6 13.8843Z" fill="#111928"/>
</svg>
