<svg width="24" height="24" viewBox="0 0 24 24" fill="none" xmlns="http://www.w3.org/2000/svg">
<path d="M21.0373 4.16248H2.9623C1.6873 4.16248 0.674805 5.17498 0.674805 6.44998V17.55C0.674805 18.825 1.6873 19.8375 2.9623 19.8375H21.0748C22.3498 19.8375 23.3623 18.825 23.3623 17.55V6.44998C23.3623 5.17498 22.3123 4.16248 21.0373 4.16248ZM2.3623 6.89998L9.18731 11.0625L2.3623 17.4375V6.89998ZM12.2998 10.6125C12.1123 10.725 11.8498 10.725 11.6623 10.6125L3.8623 5.84998H19.9873L12.2998 10.6125ZM10.6498 11.9625L10.7998 12.075C11.1748 12.3 11.5873 12.4125 11.9998 12.4125C12.4123 12.4125 12.8248 12.3 13.1998 12.075L13.3498 12L19.8373 18.1875H4.0123L10.6498 11.9625ZM21.6748 17.55C21.6373 17.55 21.6748 17.55 21.6748 17.55L14.8123 11.0625L21.6373 6.78748V17.55H21.6748Z" fill="#F0F0F0"/>
</svg>
